<svg version="1.1" id="Layer_1" xmlns="http://www.w3.org/2000/svg" xmlns:xlink="http://www.w3.org/1999/xlink" x="0px" y="0px"
	 width="100%" viewBox="0 0 512 512" enable-background="new 0 0 512 512" xml:space="preserve">
<path fill="#3B5998" opacity="1.000000" stroke="none" 
	d="
M225.000000,1.000005 
	C246.020889,1.000000 267.041779,1.000000 288.454773,1.415864 
	C289.521057,2.208958 290.153595,2.779061 290.875549,2.934881 
	C304.795868,5.939322 318.914093,8.216760 332.616272,12.002387 
	C361.130127,19.880150 386.827637,33.759987 410.527069,51.283401 
	C429.130859,65.039093 445.482086,81.304848 459.662872,99.506050 
	C472.389313,115.840485 483.137390,133.488480 491.406860,152.643814 
	C500.237488,173.098923 507.001099,194.049011 510.106995,216.155762 
	C510.531830,219.179642 512.009644,222.055573 513.000000,225.000000 
	C513.000000,246.020889 513.000000,267.041779 512.583984,288.454468 
	C511.456635,292.126465 510.563507,295.379242 510.063110,298.691345 
	C506.379913,323.071716 498.843903,346.245148 488.208862,368.430115 
	C479.721527,386.134949 469.881561,403.150269 456.618652,417.638092 
	C443.252411,432.238831 429.534027,446.743713 414.436676,459.471954 
	C398.119781,473.228363 379.458710,483.837799 359.617584,492.211578 
	C337.707672,501.458466 315.220734,508.329498 291.540802,511.085297 
	C290.631927,511.191040 289.844177,512.338135 289.000000,513.000000 
	C267.979095,513.000000 246.958206,513.000000 225.540466,512.584229 
	C224.302368,511.785034 223.494003,511.189056 222.614548,511.053131 
	C217.253799,510.224731 211.811401,509.810455 206.516434,508.689972 
	C179.980515,503.074677 154.776352,493.938416 131.047302,480.614197 
	C103.143959,464.946045 79.225121,444.509979 58.850189,420.090515 
	C43.624477,401.842377 31.152761,381.696808 21.821762,359.661896 
	C12.539777,337.742706 5.669635,315.234283 2.914610,291.532684 
	C2.809279,290.626495 1.661840,289.841492 1.000001,289.000000 
	C1.000000,267.645782 1.000000,246.291550 1.411631,224.550659 
	C2.579949,220.047836 3.270189,215.918167 4.103890,211.817657 
	C10.444193,180.633331 20.925844,151.060669 37.601986,123.764381 
	C54.004337,96.916275 74.701431,73.861420 99.289398,54.484104 
	C118.220207,39.565098 139.004272,27.477489 161.605682,18.721743 
	C181.290848,11.095740 201.432220,5.327574 222.468018,2.914295 
	C223.373306,2.810439 224.158737,1.661898 225.000000,1.000005 
M322.999084,158.482361 
	C322.999084,149.401672 322.999084,140.320999 322.999084,129.873764 
	C305.846191,130.265106 289.475159,129.580978 273.369781,131.335358 
	C260.106415,132.780151 249.170090,140.143417 241.085449,151.315735 
	C232.654999,162.965927 230.734268,176.389008 230.100388,190.083344 
	C229.602432,200.841232 230.000458,211.640579 230.000458,223.119232 
	C216.728806,223.119232 204.022644,223.119232 191.357452,223.119232 
	C191.357452,238.403168 191.357452,252.976578 191.357452,268.074493 
	C204.285889,268.074493 216.867722,268.074493 230.131943,268.074493 
	C230.131943,307.287994 230.131943,345.977783 230.131943,384.641052 
	C245.738586,384.641052 260.645111,384.641052 276.066650,384.641052 
	C276.066650,345.716370 276.066650,307.146637 276.066650,267.895081 
	C289.618958,267.895081 302.668121,267.895081 315.595825,267.895081 
	C317.506439,252.628418 319.330902,238.050293 321.233826,222.845154 
	C305.633972,222.845154 291.054749,222.845154 276.028259,222.845154 
	C276.028259,211.866211 275.805573,201.399277 276.148407,190.950912 
	C276.269257,187.268219 277.180176,183.346603 278.768433,180.031387 
	C282.189758,172.890015 289.114746,171.328400 296.184631,171.075592 
	C304.946594,170.762253 313.728271,171.000565 322.999084,171.000565 
	C322.999084,166.728561 322.999084,163.100845 322.999084,158.482361 
z"/>
<path fill="#FFFFFF" opacity="1.000000" stroke="none" 
	d="
M513.000000,224.531342 
	C512.009644,222.055573 510.531830,219.179642 510.106995,216.155762 
	C507.001099,194.049011 500.237488,173.098923 491.406860,152.643814 
	C483.137390,133.488480 472.389313,115.840485 459.662872,99.506050 
	C445.482086,81.304848 429.130859,65.039093 410.527069,51.283401 
	C386.827637,33.759987 361.130127,19.880150 332.616272,12.002387 
	C318.914093,8.216760 304.795868,5.939322 290.875549,2.934881 
	C290.153595,2.779061 289.521057,2.208958 288.923462,1.415864 
	C363.593719,1.000000 438.187408,1.000000 513.000000,1.000000 
	C513.000000,75.354088 513.000000,149.708389 513.000000,224.531342 
z"/>
<path fill="#FFFFFF" opacity="1.000000" stroke="none" 
	d="
M1.000001,289.468658 
	C1.661840,289.841492 2.809279,290.626495 2.914610,291.532684 
	C5.669635,315.234283 12.539777,337.742706 21.821762,359.661896 
	C31.152761,381.696808 43.624477,401.842377 58.850189,420.090515 
	C79.225121,444.509979 103.143959,464.946045 131.047302,480.614197 
	C154.776352,493.938416 179.980515,503.074677 206.516434,508.689972 
	C211.811401,509.810455 217.253799,510.224731 222.614548,511.053131 
	C223.494003,511.189056 224.302368,511.785034 225.071808,512.584229 
	C150.406296,513.000000 75.812599,513.000000 1.000000,513.000000 
	C1.000000,438.645905 1.000000,364.291626 1.000001,289.468658 
z"/>
<path fill="#FFFFFF" opacity="1.000000" stroke="none" 
	d="
M289.468658,513.000000 
	C289.844177,512.338135 290.631927,511.191040 291.540802,511.085297 
	C315.220734,508.329498 337.707672,501.458466 359.617584,492.211578 
	C379.458710,483.837799 398.119781,473.228363 414.436676,459.471954 
	C429.534027,446.743713 443.252411,432.238831 456.618652,417.638092 
	C469.881561,403.150269 479.721527,386.134949 488.208862,368.430115 
	C498.843903,346.245148 506.379913,323.071716 510.063110,298.691345 
	C510.563507,295.379242 511.456635,292.126465 512.583984,288.923096 
	C513.000000,363.593719 513.000000,438.187408 513.000000,513.000000 
	C438.645905,513.000000 364.291626,513.000000 289.468658,513.000000 
z"/>
<path fill="#FFFFFF" opacity="1.000000" stroke="none" 
	d="
M224.531342,1.000005 
	C224.158737,1.661898 223.373306,2.810439 222.468018,2.914295 
	C201.432220,5.327574 181.290848,11.095740 161.605682,18.721743 
	C139.004272,27.477489 118.220207,39.565098 99.289398,54.484104 
	C74.701431,73.861420 54.004337,96.916275 37.601986,123.764381 
	C20.925844,151.060669 10.444193,180.633331 4.103890,211.817657 
	C3.270189,215.918167 2.579949,220.047836 1.411631,224.082001 
	C1.000000,149.739456 1.000000,75.478920 1.000000,1.000000 
	C75.354088,1.000000 149.708389,1.000000 224.531342,1.000005 
z"/>
<path fill="#FFFFFF" opacity="1.000000" stroke="none" 
	d="
M322.999084,158.977737 
	C322.999084,163.100845 322.999084,166.728561 322.999084,171.000565 
	C313.728271,171.000565 304.946594,170.762253 296.184631,171.075592 
	C289.114746,171.328400 282.189758,172.890015 278.768433,180.031387 
	C277.180176,183.346603 276.269257,187.268219 276.148407,190.950912 
	C275.805573,201.399277 276.028259,211.866211 276.028259,222.845154 
	C291.054749,222.845154 305.633972,222.845154 321.233826,222.845154 
	C319.330902,238.050293 317.506439,252.628418 315.595825,267.895081 
	C302.668121,267.895081 289.618958,267.895081 276.066650,267.895081 
	C276.066650,307.146637 276.066650,345.716370 276.066650,384.641052 
	C260.645111,384.641052 245.738586,384.641052 230.131943,384.641052 
	C230.131943,345.977783 230.131943,307.287994 230.131943,268.074493 
	C216.867722,268.074493 204.285889,268.074493 191.357452,268.074493 
	C191.357452,252.976578 191.357452,238.403168 191.357452,223.119232 
	C204.022644,223.119232 216.728806,223.119232 230.000458,223.119232 
	C230.000458,211.640579 229.602432,200.841232 230.100388,190.083344 
	C230.734268,176.389008 232.654999,162.965927 241.085449,151.315735 
	C249.170090,140.143417 260.106415,132.780151 273.369781,131.335358 
	C289.475159,129.580978 305.846191,130.265106 322.999084,129.873764 
	C322.999084,140.320999 322.999084,149.401672 322.999084,158.977737 
z"/>
</svg>