<svg version="1.1" id="Layer_1" xmlns="http://www.w3.org/2000/svg" xmlns:xlink="http://www.w3.org/1999/xlink" x="0px" y="0px"
	 width="100%" viewBox="0 0 512 512" enable-background="new 0 0 512 512" xml:space="preserve">
<path fill="#F44336" opacity="1.000000" stroke="none" 
	d="
M225.000000,0.999998 
	C246.020889,1.000000 267.041779,1.000000 288.311951,1.389652 
	C291.070587,2.205344 293.610077,2.502282 296.084137,3.079646 
	C307.155243,5.663239 318.265991,8.105933 329.254639,11.007612 
	C351.778900,16.955391 372.690002,26.700731 392.415771,38.967831 
	C414.780884,52.876305 434.293884,70.093361 451.596832,89.973900 
	C464.221405,104.479080 475.047699,120.162827 483.951660,137.112762 
	C498.164032,164.167877 507.728790,192.772003 511.095764,223.295639 
	C511.165314,223.926102 512.340576,224.434601 513.000000,225.000000 
	C513.000000,246.020889 513.000000,267.041779 512.611145,288.310791 
	C511.838562,289.070099 511.223175,289.533081 511.105042,290.099670 
	C508.382660,303.158478 506.192719,316.349396 502.930237,329.269897 
	C497.225342,351.863068 487.296082,372.726105 475.006958,392.450256 
	C461.078613,414.805298 443.858368,434.308960 423.996429,451.632172 
	C408.994293,464.716736 392.704437,475.835083 375.092468,484.897217 
	C348.542358,498.558411 320.545135,507.903900 290.682220,511.096283 
	C290.060730,511.162720 289.558075,512.340637 289.000000,513.000000 
	C267.979095,513.000000 246.958206,513.000000 225.690460,512.612061 
	C222.935074,511.783691 220.399689,511.458954 217.922699,510.882996 
	C206.842697,508.306793 195.720886,505.881439 184.722260,502.990448 
	C162.183838,497.066223 141.258606,487.339233 121.562523,475.007812 
	C99.250557,461.038605 79.654289,443.916168 62.373760,424.003265 
	C49.772152,409.482056 38.921074,393.819122 30.042166,376.856506 
	C15.878832,349.798279 6.170169,321.251556 2.904197,290.707825 
	C2.836840,290.077911 1.659504,289.566620 0.999999,289.000000 
	C1.000000,267.645782 1.000000,246.291550 1.370768,224.731537 
	C2.157184,223.683212 2.763247,222.882721 2.959931,221.991837 
	C5.937022,208.507004 8.283433,194.852051 11.931347,181.553436 
	C17.428024,161.515045 26.292843,142.866302 36.925194,124.977135 
	C52.075497,99.486412 71.446373,77.608223 94.032249,58.724846 
	C112.097198,43.621284 132.096878,31.275768 153.892136,21.969465 
	C176.028107,12.517670 198.814117,5.634011 222.793228,2.918567 
	C223.591003,2.828227 224.267151,1.663770 225.000000,0.999998 
M387.027679,311.991974 
	C398.275696,311.991974 409.523743,311.991974 421.117432,311.991974 
	C421.117432,299.347260 421.117432,287.415192 421.117432,274.954346 
	C433.520935,274.954346 445.575043,274.954346 457.655548,274.954346 
	C457.655548,262.700745 457.655548,250.987061 457.655548,238.741943 
	C445.263031,238.741943 433.209045,238.741943 420.814880,238.741943 
	C420.814880,226.607895 420.814880,215.008545 420.814880,203.041748 
	C409.007812,203.041748 397.555695,203.041748 385.675354,203.743484 
	C385.450226,208.873352 385.011108,214.005035 385.054657,219.132629 
	C385.108032,225.420029 385.565155,231.704010 385.543823,238.797668 
	C373.478302,238.797668 361.412781,238.797668 349.334534,238.797668 
	C349.334534,251.311737 349.334534,263.009521 349.334534,275.000732 
	C360.282654,275.000732 370.899170,274.960205 381.514618,275.048126 
	C382.964539,275.060089 384.409210,275.712708 385.504303,276.797546 
	C385.336517,286.593475 385.105408,296.389099 385.055359,306.185638 
	C385.045532,308.106079 385.736450,310.030060 387.027679,311.991974 
M186.027756,281.992035 
	C209.620712,281.992035 233.213669,281.992035 257.091797,281.992035 
	C254.632568,296.392334 248.887421,308.145264 238.662613,318.008362 
	C223.194595,332.929230 204.001663,337.401703 183.737503,337.704773 
	C171.915894,337.881561 160.139664,334.950531 149.139053,329.960388 
	C132.296295,322.320129 119.291100,310.548279 111.396378,293.737457 
	C104.688278,279.453430 102.358673,264.051056 104.282364,248.564926 
	C105.506470,238.710587 108.212311,228.617340 112.430542,219.655853 
	C118.952179,205.800858 129.551666,195.076813 143.082520,187.293701 
	C161.676895,176.597946 181.348465,173.377441 202.248901,177.675797 
	C214.807175,180.258484 225.780640,186.085052 235.946854,196.204025 
	C246.672668,184.424576 257.167389,172.898926 268.201630,160.780762 
	C260.561676,155.701004 252.127228,149.161835 242.875397,144.123657 
	C219.201950,131.232056 193.861740,127.243523 167.060974,130.851105 
	C152.121475,132.862076 138.062256,137.392319 124.924492,144.216644 
	C109.427307,152.266510 95.863998,163.009720 84.603058,176.720642 
	C68.529327,196.291428 59.430855,218.748856 57.216114,243.591339 
	C54.779114,270.926849 59.671833,297.037048 73.929161,321.152924 
	C86.648300,342.666962 103.967819,359.042755 126.003311,370.427429 
	C145.452713,380.476044 166.169449,385.532837 188.178589,383.942993 
	C197.154770,383.294586 206.224625,382.678101 215.006195,380.860260 
	C234.181595,376.890839 251.343323,368.344940 266.060242,355.362000 
	C279.528839,343.480347 289.813782,329.188934 296.782806,312.569641 
	C303.439148,296.696014 306.251312,279.989563 306.850037,262.949158 
	C307.083954,256.291565 305.646515,249.576797 304.992981,242.885849 
	C304.697540,239.861359 303.146698,238.924866 300.078552,238.934204 
	C261.753967,239.051041 223.428986,239.031876 184.675720,239.747803 
	C184.585510,253.381058 184.488754,267.014282 184.434830,280.647675 
	C184.433105,281.081726 184.871216,281.517578 186.027756,281.992035 
z"/>
<path fill="#FFFFFF" opacity="1.000000" stroke="none" 
	d="
M513.000000,224.531342 
	C512.340576,224.434601 511.165314,223.926102 511.095764,223.295639 
	C507.728790,192.772003 498.164032,164.167877 483.951660,137.112762 
	C475.047699,120.162827 464.221405,104.479080 451.596832,89.973900 
	C434.293884,70.093361 414.780884,52.876305 392.415771,38.967831 
	C372.690002,26.700731 351.778900,16.955391 329.254639,11.007612 
	C318.265991,8.105933 307.155243,5.663239 296.084137,3.079646 
	C293.610077,2.502282 291.070587,2.205344 288.780609,1.389652 
	C363.593719,1.000000 438.187408,1.000000 513.000000,1.000000 
	C513.000000,75.354088 513.000000,149.708389 513.000000,224.531342 
z"/>
<path fill="#FFFFFF" opacity="1.000000" stroke="none" 
	d="
M0.999999,289.468658 
	C1.659504,289.566620 2.836840,290.077911 2.904197,290.707825 
	C6.170169,321.251556 15.878832,349.798279 30.042166,376.856506 
	C38.921074,393.819122 49.772152,409.482056 62.373760,424.003265 
	C79.654289,443.916168 99.250557,461.038605 121.562523,475.007812 
	C141.258606,487.339233 162.183838,497.066223 184.722260,502.990448 
	C195.720886,505.881439 206.842697,508.306793 217.922699,510.882996 
	C220.399689,511.458954 222.935074,511.783691 225.221802,512.612061 
	C150.406296,513.000000 75.812599,513.000000 1.000000,513.000000 
	C1.000000,438.645905 1.000000,364.291626 0.999999,289.468658 
z"/>
<path fill="#FFFFFF" opacity="1.000000" stroke="none" 
	d="
M289.468658,513.000000 
	C289.558075,512.340637 290.060730,511.162720 290.682220,511.096283 
	C320.545135,507.903900 348.542358,498.558411 375.092468,484.897217 
	C392.704437,475.835083 408.994293,464.716736 423.996429,451.632172 
	C443.858368,434.308960 461.078613,414.805298 475.006958,392.450256 
	C487.296082,372.726105 497.225342,351.863068 502.930237,329.269897 
	C506.192719,316.349396 508.382660,303.158478 511.105042,290.099670 
	C511.223175,289.533081 511.838562,289.070099 512.611145,288.779419 
	C513.000000,363.593719 513.000000,438.187408 513.000000,513.000000 
	C438.645905,513.000000 364.291626,513.000000 289.468658,513.000000 
z"/>
<path fill="#FFFFFF" opacity="1.000000" stroke="none" 
	d="
M224.531342,0.999998 
	C224.267151,1.663770 223.591003,2.828227 222.793228,2.918567 
	C198.814117,5.634011 176.028107,12.517670 153.892136,21.969465 
	C132.096878,31.275768 112.097198,43.621284 94.032249,58.724846 
	C71.446373,77.608223 52.075497,99.486412 36.925194,124.977135 
	C26.292843,142.866302 17.428024,161.515045 11.931347,181.553436 
	C8.283433,194.852051 5.937022,208.507004 2.959931,221.991837 
	C2.763247,222.882721 2.157184,223.683212 1.370768,224.262878 
	C1.000000,149.739456 1.000000,75.478920 1.000000,1.000000 
	C75.354088,1.000000 149.708389,1.000000 224.531342,0.999998 
z"/>
<path fill="#FFFFFF" opacity="1.000000" stroke="none" 
	d="
M185.104095,239.047623 
	C223.428986,239.031876 261.753967,239.051041 300.078552,238.934204 
	C303.146698,238.924866 304.697540,239.861359 304.992981,242.885849 
	C305.646515,249.576797 307.083954,256.291565 306.850037,262.949158 
	C306.251312,279.989563 303.439148,296.696014 296.782806,312.569641 
	C289.813782,329.188934 279.528839,343.480347 266.060242,355.362000 
	C251.343323,368.344940 234.181595,376.890839 215.006195,380.860260 
	C206.224625,382.678101 197.154770,383.294586 188.178589,383.942993 
	C166.169449,385.532837 145.452713,380.476044 126.003311,370.427429 
	C103.967819,359.042755 86.648300,342.666962 73.929161,321.152924 
	C59.671833,297.037048 54.779114,270.926849 57.216114,243.591339 
	C59.430855,218.748856 68.529327,196.291428 84.603058,176.720642 
	C95.863998,163.009720 109.427307,152.266510 124.924492,144.216644 
	C138.062256,137.392319 152.121475,132.862076 167.060974,130.851105 
	C193.861740,127.243523 219.201950,131.232056 242.875397,144.123657 
	C252.127228,149.161835 260.561676,155.701004 268.201630,160.780762 
	C257.167389,172.898926 246.672668,184.424576 235.946854,196.204025 
	C225.780640,186.085052 214.807175,180.258484 202.248901,177.675797 
	C181.348465,173.377441 161.676895,176.597946 143.082520,187.293701 
	C129.551666,195.076813 118.952179,205.800858 112.430542,219.655853 
	C108.212311,228.617340 105.506470,238.710587 104.282364,248.564926 
	C102.358673,264.051056 104.688278,279.453430 111.396378,293.737457 
	C119.291100,310.548279 132.296295,322.320129 149.139053,329.960388 
	C160.139664,334.950531 171.915894,337.881561 183.737503,337.704773 
	C204.001663,337.401703 223.194595,332.929230 238.662613,318.008362 
	C248.887421,308.145264 254.632568,296.392334 257.091797,281.992035 
	C233.213669,281.992035 209.620712,281.992035 185.522354,281.509216 
	C185.046005,267.033447 185.075043,253.040543 185.104095,239.047623 
z"/>
<path fill="#FFFFFF" opacity="1.000000" stroke="none" 
	d="
M385.856293,276.068665 
	C384.409210,275.712708 382.964539,275.060089 381.514618,275.048126 
	C370.899170,274.960205 360.282654,275.000732 349.334534,275.000732 
	C349.334534,263.009521 349.334534,251.311737 349.334534,238.797668 
	C361.412781,238.797668 373.478302,238.797668 385.759583,237.929031 
	C386.018097,225.720840 386.060822,214.381302 386.103577,203.041748 
	C397.555695,203.041748 409.007812,203.041748 420.814880,203.041748 
	C420.814880,215.008545 420.814880,226.607895 420.814880,238.741943 
	C433.209045,238.741943 445.263031,238.741943 457.655548,238.741943 
	C457.655548,250.987061 457.655548,262.700745 457.655548,274.954346 
	C445.575043,274.954346 433.520935,274.954346 421.117432,274.954346 
	C421.117432,287.415192 421.117432,299.347260 421.117432,311.991974 
	C409.523743,311.991974 398.275696,311.991974 386.522339,311.509094 
	C385.963409,299.373718 385.909851,287.721191 385.856293,276.068665 
z"/>
<path fill="#FF3333" opacity="1.000000" stroke="none" 
	d="
M184.889893,239.397705 
	C185.075043,253.040543 185.046005,267.033447 185.060608,281.489471 
	C184.871216,281.517578 184.433105,281.081726 184.434830,280.647675 
	C184.488754,267.014282 184.585510,253.381058 184.889893,239.397705 
z"/>
<path fill="#FF3333" opacity="1.000000" stroke="none" 
	d="
M385.680298,276.433105 
	C385.909851,287.721191 385.963409,299.373718 386.060547,311.489319 
	C385.736450,310.030060 385.045532,308.106079 385.055359,306.185638 
	C385.105408,296.389099 385.336517,286.593475 385.680298,276.433105 
z"/>
<path fill="#FF3333" opacity="1.000000" stroke="none" 
	d="
M385.889465,203.392609 
	C386.060822,214.381302 386.018097,225.720840 385.911530,237.524933 
	C385.565155,231.704010 385.108032,225.420029 385.054657,219.132629 
	C385.011108,214.005035 385.450226,208.873352 385.889465,203.392609 
z"/>
</svg>