<?xml version="1.0" standalone="yes"?>
<svg xmlns="http://www.w3.org/2000/svg" width="512" height="512">
<path style="fill:#f9fafa; stroke:none;" d="M0 0L0 234L1 234C1.01831 206.354 10.4403 176.964 21.6944 152C57.4209 72.7505 143.174 1.05988 234 1L212 0L165 0L0 0z"/>
<path style="fill:#55adef; stroke:none;" d="M234 0.424377C187.323 6.55594 144.774 19.7182 106 47.4275C79.7619 66.1783 57.7068 90.1466 40.0031 117C23.6932 141.739 12.0366 170.053 5.79012 199C-4.60361 247.165 -1.96 298.597 15.0532 345C55.6121 455.623 170.453 524.841 287 510.715C324.759 506.138 362.071 493.499 394 472.656C431.043 448.475 461.611 415.972 482.691 377C541.546 268.19 510.028 126.647 412 51.8843C386.555 32.4785 357.737 18.1154 327 9.29089C297.924 0.943146 264.205 -3.5434 234 0.424377z"/>
<path style="fill:#f9fafa; stroke:none;" d="M278 0L278 1C368.826 1.05988 454.579 72.7506 490.306 152C501.568 176.983 510.982 206.34 511 234L512 234L512 0L278 0z"/>
<path style="fill:#95c9f0; stroke:none;" d="M314 155L314 156L318 156L314 155z"/>
<path style="fill:#c0dcf1; stroke:none;" d="M318 155L318 156L324 156L318 155z"/>
<path style="fill:#95c9f0; stroke:none;" d="M324 155L324 156L329 156L324 155M308 156L309 157L308 156z"/>
<path style="fill:#c0dcf1; stroke:none;" d="M309.667 156.333L310.333 156.667L309.667 156.333z"/>
<path style="fill:#e2ecf2; stroke:none;" d="M311 156L312 157L311 156z"/>
<path style="fill:#f9fafa; stroke:none;" d="M262 231C226.505 229.476 192.232 215.845 164 194.625C153.485 186.722 145.597 175.47 135 168C117.982 197.932 132.15 227.953 155 249L127 242C128.282 271.859 148 293.054 176 301L176 302L149 303C155.945 327.107 180.388 343.932 205 344C185.384 368.095 146.33 371 118 371L118 372C135.699 381.313 153.207 389.569 173 393.551C239.944 407.02 311.579 381.487 350.329 324C364.097 303.574 374.211 280.26 378.739 256C380.947 244.172 378.475 227.937 382.603 217.015C384.541 211.887 391.048 208.232 394.996 204.715C401.219 199.17 406.942 192.279 411 185L377 194L377 193C388.789 187.128 399.342 174.699 403 162C391.923 165.191 380.038 174.901 368 174.068C362.6 173.694 357.416 167.522 353 164.699C345.873 160.142 337.373 157.377 329 156.289C285.636 150.654 254.417 190.155 262 231z"/>
<path style="fill:#e2ecf2; stroke:none;" d="M330 156L331 157L330 156z"/>
<path style="fill:#c0dcf1; stroke:none;" d="M331.667 156.333L332.333 156.667L331.667 156.333z"/>
<path style="fill:#95c9f0; stroke:none;" d="M333 156L334 157L333 156M304 157L305 158L304 157z"/>
<path style="fill:#c0dcf1; stroke:none;" d="M305 157L306 158L305 157z"/>
<path style="fill:#e2ecf2; stroke:none;" d="M306 157L307 158L306 157M335 157L336 158L335 157z"/>
<path style="fill:#c0dcf1; stroke:none;" d="M336 157L337 158L336 157z"/>
<path style="fill:#95c9f0; stroke:none;" d="M337 157L338 158L337 157M301 158L302 159L301 158z"/>
<path style="fill:#e2ecf2; stroke:none;" d="M302 158L303 159L302 158M339 158L340 159L339 158z"/>
<path style="fill:#c0dcf1; stroke:none;" d="M340 158L341 159L340 158z"/>
<path style="fill:#95c9f0; stroke:none;" d="M298 159L299 160L298 159z"/>
<path style="fill:#c0dcf1; stroke:none;" d="M299 159L300 160L299 159M342 159L343 160L342 159z"/>
<path style="fill:#95c9f0; stroke:none;" d="M343 159L344 160L343 159z"/>
<path style="fill:#c0dcf1; stroke:none;" d="M296 160L297 161L296 160z"/>
<path style="fill:#e2ecf2; stroke:none;" d="M297 160L298 161L297 160M344 160L345 161L344 160z"/>
<path style="fill:#c0dcf1; stroke:none;" d="M345 160L346 161L345 160M403 160L404 161L403 160z"/>
<path style="fill:#95c9f0; stroke:none;" d="M404 160L405 161L404 160z"/>
<path style="fill:#c0dcf1; stroke:none;" d="M294 161L295 162L294 161z"/>
<path style="fill:#e2ecf2; stroke:none;" d="M295 161L296 162L295 161z"/>
<path style="fill:#c0dcf1; stroke:none;" d="M347 161L348 162L347 161M401 161L402 162L401 161z"/>
<path style="fill:#e2ecf2; stroke:none;" d="M402.667 161.333L403.333 161.667L402.667 161.333z"/>
<path style="fill:#c0dcf1; stroke:none;" d="M292 162L293 163L292 162z"/>
<path style="fill:#e2ecf2; stroke:none;" d="M293 162L294 163L293 162z"/>
<path style="fill:#c0dcf1; stroke:none;" d="M349 162L350 163L349 162z"/>
<path style="fill:#95c9f0; stroke:none;" d="M399 162L400 163L399 162z"/>
<path style="fill:#e2ecf2; stroke:none;" d="M400 162L401 163L400 162z"/>
<path style="fill:#c0dcf1; stroke:none;" d="M403 162L404 163L403 162z"/>
<path style="fill:#95c9f0; stroke:none;" d="M290 163L291 164L290 163z"/>
<path style="fill:#e2ecf2; stroke:none;" d="M291 163L292 164L291 163z"/>
<path style="fill:#c0dcf1; stroke:none;" d="M351 163L352 164L351 163z"/>
<path style="fill:#95c9f0; stroke:none;" d="M397 163L398 164L397 163z"/>
<path style="fill:#e2ecf2; stroke:none;" d="M398 163L399 164L398 163z"/>
<path style="fill:#95c9f0; stroke:none;" d="M288 164L289 165L288 164z"/>
<path style="fill:#e2ecf2; stroke:none;" d="M289 164L290 165L289 164M352 164L353 165L352 164z"/>
<path style="fill:#95c9f0; stroke:none;" d="M353 164L354 165L353 164M395 164L396 165L395 164z"/>
<path style="fill:#e2ecf2; stroke:none;" d="M396 164L397 165L396 164M402 164L403 165L402 164z"/>
<path style="fill:#c0dcf1; stroke:none;" d="M287 165L288 166L287 165M354 165L355 166L354 165z"/>
<path style="fill:#95c9f0; stroke:none;" d="M393 165L394 166L393 165z"/>
<path style="fill:#e2ecf2; stroke:none;" d="M394 165L395 166L394 165z"/>
<path style="fill:#95c9f0; stroke:none;" d="M402 165L403 166L402 165M285 166L286 167L285 166z"/>
<path style="fill:#e2ecf2; stroke:none;" d="M286 166L287 167L286 166M355 166L356 167L355 166z"/>
<path style="fill:#95c9f0; stroke:none;" d="M356 166L357 167L356 166z"/>
<path style="fill:#c0dcf1; stroke:none;" d="M391 166L392 167L391 166z"/>
<path style="fill:#e2ecf2; stroke:none;" d="M392 166L393 167L392 166M401 166L402 167L401 166M135 167L137 169L135 167z"/>
<path style="fill:#95c9f0; stroke:none;" d="M136 167L137 168L136 167M284 167L285 168L284 167z"/>
<path style="fill:#c0dcf1; stroke:none;" d="M357 167L358 168L357 167z"/>
<path style="fill:#95c9f0; stroke:none;" d="M388 167L389 168L388 167z"/>
<path style="fill:#c0dcf1; stroke:none;" d="M389 167L390 168L389 167z"/>
<path style="fill:#95c9f0; stroke:none;" d="M401 167L402 168L401 167z"/>
<path style="fill:#c0dcf1; stroke:none;" d="M134 168L135 169L134 168M283 168L284 169L283 168z"/>
<path style="fill:#e2ecf2; stroke:none;" d="M358 168L359 169L358 168z"/>
<path style="fill:#95c9f0; stroke:none;" d="M386 168L387 169L386 168z"/>
<path style="fill:#e2ecf2; stroke:none;" d="M387 168L388 169L387 168M400 168L401 169L400 168M137 169L138 170L137 169z"/>
<path style="fill:#95c9f0; stroke:none;" d="M281 169L279 172L281 169z"/>
<path style="fill:#e2ecf2; stroke:none;" d="M282 169L283 170L282 169M359 169L360 170L359 169z"/>
<path style="fill:#95c9f0; stroke:none;" d="M360 169L361 170L360 169M383 169L384 170L383 169z"/>
<path style="fill:#c0dcf1; stroke:none;" d="M384 169L385 170L384 169z"/>
<path style="fill:#e2ecf2; stroke:none;" d="M385 169L386 170L385 169z"/>
<path style="fill:#95c9f0; stroke:none;" d="M400 169L401 170L400 169z"/>
<path style="fill:#c0dcf1; stroke:none;" d="M133 170L134 171L133 170z"/>
<path style="fill:#e2ecf2; stroke:none;" d="M138 170L139 171L138 170M281 170L282 171L281 170z"/>
<path style="fill:#95c9f0; stroke:none;" d="M361 170L362 171L361 170M380 170L381 171L380 170z"/>
<path style="fill:#c0dcf1; stroke:none;" d="M381 170L382 171L381 170z"/>
<path style="fill:#e2ecf2; stroke:none;" d="M382 170L383 171L382 170M399 170L400 171L399 170M139 171L140 172L139 171M280 171L281 172L280 171z"/>
<path style="fill:#95c9f0; stroke:none;" d="M362 171L363 172L362 171M377 171L378 172L377 171z"/>
<path style="fill:#c0dcf1; stroke:none;" d="M378 171L379 172L378 171z"/>
<path style="fill:#e2ecf2; stroke:none;" d="M379 171L380 172L379 171z"/>
<path style="fill:#95c9f0; stroke:none;" d="M399 171L400 172L399 171z"/>
<path style="fill:#c0dcf1; stroke:none;" d="M132 172L133 173L132 172M140 172L141 173L140 172z"/>
<path style="fill:#95c9f0; stroke:none;" d="M278 172L279 173L278 172z"/>
<path style="fill:#c0dcf1; stroke:none;" d="M363 172L364 173L363 172z"/>
<path style="fill:#95c9f0; stroke:none;" d="M373.667 172.333L374.333 172.667L373.667 172.333z"/>
<path style="fill:#c0dcf1; stroke:none;" d="M375 172L376 173L375 172z"/>
<path style="fill:#e2ecf2; stroke:none;" d="M376 172L377 173L376 172z"/>
<path style="fill:#c0dcf1; stroke:none;" d="M398 172L399 173L398 172M141 173L142 174L141 173z"/>
<path style="fill:#95c9f0; stroke:none;" d="M277 173L278 174L277 173z"/>
<path style="fill:#c0dcf1; stroke:none;" d="M364 173L365 174L364 173z"/>
<path style="fill:#95c9f0; stroke:none;" d="M369 173L370 174L369 173z"/>
<path style="fill:#c0dcf1; stroke:none;" d="M370 173L371 174L370 173z"/>
<path style="fill:#e2ecf2; stroke:none;" d="M371.667 173.333L372.333 173.667L371.667 173.333M397 173L398 174L397 173z"/>
<path style="fill:#95c9f0; stroke:none;" d="M131 174L132 175L131 174z"/>
<path style="fill:#c0dcf1; stroke:none;" d="M142 174L143 175L142 174z"/>
<path style="fill:#95c9f0; stroke:none;" d="M276 174L274 177L276 174z"/>
<path style="fill:#c0dcf1; stroke:none;" d="M365.667 174.333L366.333 174.667L365.667 174.333z"/>
<path style="fill:#e2ecf2; stroke:none;" d="M367 174L368 175L367 174z"/>
<path style="fill:#95c9f0; stroke:none;" d="M397 174L398 175L397 174z"/>
<path style="fill:#e2ecf2; stroke:none;" d="M131 175L132 176L131 175z"/>
<path style="fill:#95c9f0; stroke:none;" d="M143 175L144 176L143 175z"/>
<path style="fill:#e2ecf2; stroke:none;" d="M276 175L277 176L276 175z"/>
<path style="fill:#c0dcf1; stroke:none;" d="M396 175L397 176L396 175z"/>
<path style="fill:#95c9f0; stroke:none;" d="M130 176L131 177L130 176M144 176L147 179L144 176z"/>
<path style="fill:#e2ecf2; stroke:none;" d="M275 176L276 177L275 176M395 176L396 177L395 176z"/>
<path style="fill:#c0dcf1; stroke:none;" d="M130 177L131 178L130 177z"/>
<path style="fill:#e2ecf2; stroke:none;" d="M144 177L145 178L144 177M274 177L275 178L274 177z"/>
<path style="fill:#95c9f0; stroke:none;" d="M395 177L396 178L395 177z"/>
<path style="fill:#e2ecf2; stroke:none;" d="M130 178L131 179L130 178M145 178L146 179L145 178M273 178L274 179L273 178z"/>
<path style="fill:#c0dcf1; stroke:none;" d="M394 178L395 179L394 178z"/>
<path style="fill:#95c9f0; stroke:none;" d="M129 179L130 180L129 179z"/>
<path style="fill:#e2ecf2; stroke:none;" d="M146 179L147 180L146 179z"/>
<path style="fill:#c0dcf1; stroke:none;" d="M272 179L273 180L272 179M393 179L394 180L393 179M129 180L130 181L129 180z"/>
<path style="fill:#e2ecf2; stroke:none;" d="M147 180L150 183L147 180z"/>
<path style="fill:#95c9f0; stroke:none;" d="M148 180L149 181L148 180M271 180L272 181L271 180z"/>
<path style="fill:#e2ecf2; stroke:none;" d="M392 180L393 181L392 180M129 181L130 182L129 181z"/>
<path style="fill:#95c9f0; stroke:none;" d="M149 181L150 182L149 181z"/>
<path style="fill:#e2ecf2; stroke:none;" d="M271 181L272 182L271 181M391 181L392 182L391 181z"/>
<path style="fill:#95c9f0; stroke:none;" d="M150 182L151 183L150 182z"/>
<path style="fill:#e2ecf2; stroke:none;" d="M270 182L271 183L270 182M390 182L391 183L390 182z"/>
<path style="fill:#95c9f0; stroke:none;" d="M128.333 183.667L128.667 184.333L128.333 183.667M151 183L152 184L151 183M269 183L270 184L269 183z"/>
<path style="fill:#e2ecf2; stroke:none;" d="M389 183L390 184L389 183z"/>
<path style="fill:#c0dcf1; stroke:none;" d="M152 184L153 185L152 184z"/>
<path style="fill:#e2ecf2; stroke:none;" d="M269 184L270 185L269 184M388 184L389 185L388 184z"/>
<path style="fill:#95c9f0; stroke:none;" d="M411.667 184.333L412.333 184.667L411.667 184.333z"/>
<path style="fill:#c0dcf1; stroke:none;" d="M128 185L129 186L128 185M153 185L154 186L153 185M268 185L269 186L268 185z"/>
<path style="fill:#e2ecf2; stroke:none;" d="M387 185L386 187L387 185z"/>
<path style="fill:#95c9f0; stroke:none;" d="M408 185L409 186L408 185z"/>
<path style="fill:#c0dcf1; stroke:none;" d="M409 185L410 186L409 185M411 185L412 186L411 185z"/>
<path style="fill:#e2ecf2; stroke:none;" d="M128 186L129 187L128 186z"/>
<path style="fill:#c0dcf1; stroke:none;" d="M154 186L155 187L154 186z"/>
<path style="fill:#95c9f0; stroke:none;" d="M267 186L268 187L267 186M387 186L388 187L387 186M406 186L407 187L406 186z"/>
<path style="fill:#e2ecf2; stroke:none;" d="M407 186L408 187L407 186M410 186L409 188L410 186M155 187L156 188L155 187M267 187L268 188L267 187M385 187L386 188L385 187z"/>
<path style="fill:#95c9f0; stroke:none;" d="M403 187L404 188L403 187z"/>
<path style="fill:#c0dcf1; stroke:none;" d="M404 187L405 188L404 187z"/>
<path style="fill:#95c9f0; stroke:none;" d="M410 187L411 188L410 187M127 188L127 191L128 191L127 188z"/>
<path style="fill:#e2ecf2; stroke:none;" d="M156 188L157 189L156 188z"/>
<path style="fill:#95c9f0; stroke:none;" d="M266 188L267 189L266 188z"/>
<path style="fill:#c0dcf1; stroke:none;" d="M384 188L385 189L384 188z"/>
<path style="fill:#95c9f0; stroke:none;" d="M400 188L401 189L400 188z"/>
<path style="fill:#c0dcf1; stroke:none;" d="M401 188L402 189L401 188z"/>
<path style="fill:#95c9f0; stroke:none;" d="M409 188L410 189L409 188z"/>
<path style="fill:#e2ecf2; stroke:none;" d="M157 189L160 192L157 189z"/>
<path style="fill:#95c9f0; stroke:none;" d="M158 189L159 190L158 189z"/>
<path style="fill:#e2ecf2; stroke:none;" d="M266 189L267 190L266 189M382 189L383 190L382 189z"/>
<path style="fill:#95c9f0; stroke:none;" d="M383 189L384 190L383 189M397 189L398 190L397 189z"/>
<path style="fill:#e2ecf2; stroke:none;" d="M398 189L399 190L398 189z"/>
<path style="fill:#c0dcf1; stroke:none;" d="M408 189L409 190L408 189z"/>
<path style="fill:#95c9f0; stroke:none;" d="M159 190L160 191L159 190M265 190L266 191L265 190z"/>
<path style="fill:#c0dcf1; stroke:none;" d="M381 190L382 191L381 190z"/>
<path style="fill:#95c9f0; stroke:none;" d="M393 190L394 191L393 190z"/>
<path style="fill:#c0dcf1; stroke:none;" d="M394 190L395 191L394 190z"/>
<path style="fill:#e2ecf2; stroke:none;" d="M395 190L396 191L395 190M407 190L408 191L407 190z"/>
<path style="fill:#c0dcf1; stroke:none;" d="M127 191L127 195L128 195L127 191z"/>
<path style="fill:#95c9f0; stroke:none;" d="M160 191L161 192L160 191z"/>
<path style="fill:#c0dcf1; stroke:none;" d="M265 191L266 192L265 191z"/>
<path style="fill:#95c9f0; stroke:none;" d="M380 191L381 192L380 191M388.667 191.333L389.333 191.667L388.667 191.333z"/>
<path style="fill:#c0dcf1; stroke:none;" d="M390 191L391 192L390 191z"/>
<path style="fill:#e2ecf2; stroke:none;" d="M391 191L392 192L391 191z"/>
<path style="fill:#95c9f0; stroke:none;" d="M407 191L408 192L407 191z"/>
<path style="fill:#c0dcf1; stroke:none;" d="M161 192L162 193L161 192z"/>
<path style="fill:#95c9f0; stroke:none;" d="M264 192L265 193L264 192z"/>
<path style="fill:#e2ecf2; stroke:none;" d="M378 192L377 194L378 192z"/>
<path style="fill:#95c9f0; stroke:none;" d="M379 192L380 193L379 192M383.667 192.333L384.333 192.667L383.667 192.333z"/>
<path style="fill:#c0dcf1; stroke:none;" d="M385.667 192.333L386.333 192.667L385.667 192.333z"/>
<path style="fill:#e2ecf2; stroke:none;" d="M387 192L388 193L387 192z"/>
<path style="fill:#95c9f0; stroke:none;" d="M406 192L407 193L406 192z"/>
<path style="fill:#e2ecf2; stroke:none;" d="M162 193L163 194L162 193z"/>
<path style="fill:#c0dcf1; stroke:none;" d="M264 193L265 194L264 193M378.667 193.333L379.333 193.667L378.667 193.333z"/>
<path style="fill:#e2ecf2; stroke:none;" d="M380.667 193.333L381.333 193.667L380.667 193.333z"/>
<path style="fill:#c0dcf1; stroke:none;" d="M405 193L406 194L405 193z"/>
<path style="fill:#e2ecf2; stroke:none;" d="M163 194L164 195L163 194z"/>
<path style="fill:#95c9f0; stroke:none;" d="M164 194L165 195L164 194z"/>
<path style="fill:#e2ecf2; stroke:none;" d="M264 194L265 195L264 194z"/>
<path style="fill:#c0dcf1; stroke:none;" d="M404 194L405 195L404 194z"/>
<path style="fill:#e2ecf2; stroke:none;" d="M127 195L127 200L128 200L127 195z"/>
<path style="fill:#c0dcf1; stroke:none;" d="M165 195L166 196L165 195z"/>
<path style="fill:#95c9f0; stroke:none;" d="M263 195L264 196L263 195z"/>
<path style="fill:#e2ecf2; stroke:none;" d="M403 195L404 196L403 195M166 196L168 198L166 196z"/>
<path style="fill:#95c9f0; stroke:none;" d="M167 196L168 197L167 196z"/>
<path style="fill:#c0dcf1; stroke:none;" d="M263 196L264 197L263 196z"/>
<path style="fill:#e2ecf2; stroke:none;" d="M402 196L401 198L402 196z"/>
<path style="fill:#95c9f0; stroke:none;" d="M168 197L169 198L168 197M402 197L403 198L402 197z"/>
<path style="fill:#c0dcf1; stroke:none;" d="M169 198L170 199L169 198z"/>
<path style="fill:#95c9f0; stroke:none;" d="M262 198L263 199L262 198M401 198L402 199L401 198z"/>
<path style="fill:#e2ecf2; stroke:none;" d="M170 199L171 200L170 199z"/>
<path style="fill:#95c9f0; stroke:none;" d="M171 199L172 200L171 199z"/>
<path style="fill:#c0dcf1; stroke:none;" d="M262 199L263 200L262 199z"/>
<path style="fill:#95c9f0; stroke:none;" d="M400 199L401 200L400 199z"/>
<path style="fill:#c0dcf1; stroke:none;" d="M127 200L127 204L128 204L127 200M172 200L173 201L172 200z"/>
<path style="fill:#e2ecf2; stroke:none;" d="M262 200L263 201L262 200z"/>
<path style="fill:#95c9f0; stroke:none;" d="M399 200L400 201L399 200z"/>
<path style="fill:#e2ecf2; stroke:none;" d="M173 201L174 202L173 201z"/>
<path style="fill:#95c9f0; stroke:none;" d="M261.333 201.667L261.667 202.333L261.333 201.667z"/>
<path style="fill:#c0dcf1; stroke:none;" d="M398 201L399 202L398 201z"/>
<path style="fill:#e2ecf2; stroke:none;" d="M174 202L175 203L174 202z"/>
<path style="fill:#95c9f0; stroke:none;" d="M175 202L176 203L175 202z"/>
<path style="fill:#c0dcf1; stroke:none;" d="M397 202L398 203L397 202z"/>
<path style="fill:#e2ecf2; stroke:none;" d="M176 203L177 204L176 203z"/>
<path style="fill:#95c9f0; stroke:none;" d="M177 203L178 204L177 203z"/>
<path style="fill:#c0dcf1; stroke:none;" d="M261 203L262 204L261 203z"/>
<path style="fill:#95c9f0; stroke:none;" d="M396 203L397 204L396 203M127.333 204.667L127.667 205.333L127.333 204.667z"/>
<path style="fill:#c0dcf1; stroke:none;" d="M178 204L179 205L178 204z"/>
<path style="fill:#e2ecf2; stroke:none;" d="M261 204L262 205L261 204z"/>
<path style="fill:#95c9f0; stroke:none;" d="M395 204L396 205L395 204z"/>
<path style="fill:#e2ecf2; stroke:none;" d="M179 205L180 206L179 205z"/>
<path style="fill:#95c9f0; stroke:none;" d="M180 205L181 206L180 205M394 205L395 206L394 205z"/>
<path style="fill:#e2ecf2; stroke:none;" d="M181 206L182 207L181 206z"/>
<path style="fill:#95c9f0; stroke:none;" d="M182 206L183 207L182 206M260.333 206.667L260.667 207.333L260.333 206.667z"/>
<path style="fill:#e2ecf2; stroke:none;" d="M392 206L390 209L392 206z"/>
<path style="fill:#95c9f0; stroke:none;" d="M393 206L394 207L393 206z"/>
<path style="fill:#e2ecf2; stroke:none;" d="M128.333 207.667L128.667 208.333L128.333 207.667z"/>
<path style="fill:#c0dcf1; stroke:none;" d="M183 207L184 208L183 207z"/>
<path style="fill:#95c9f0; stroke:none;" d="M392 207L393 208L392 207z"/>
<path style="fill:#c0dcf1; stroke:none;" d="M185 208L186 209L185 208M260.333 208.667L260.667 209.333L260.333 208.667z"/>
<path style="fill:#95c9f0; stroke:none;" d="M391 208L392 209L391 208z"/>
<path style="fill:#c0dcf1; stroke:none;" d="M128 209L129 210L128 209z"/>
<path style="fill:#e2ecf2; stroke:none;" d="M186 209L187 210L186 209z"/>
<path style="fill:#95c9f0; stroke:none;" d="M187 209L188 210L187 209z"/>
<path style="fill:#e2ecf2; stroke:none;" d="M389 209L390 210L389 209z"/>
<path style="fill:#95c9f0; stroke:none;" d="M128.333 210.667L128.667 211.333L128.333 210.667z"/>
<path style="fill:#e2ecf2; stroke:none;" d="M188 210L189 211L188 210z"/>
<path style="fill:#95c9f0; stroke:none;" d="M189 210L190 211L189 210z"/>
<path style="fill:#e2ecf2; stroke:none;" d="M260 210L260 213L261 213L260 210z"/>
<path style="fill:#c0dcf1; stroke:none;" d="M388 210L389 211L388 210M190 211L191 212L190 211z"/>
<path style="fill:#95c9f0; stroke:none;" d="M191 211L192 212L191 211M387 211L388 212L387 211z"/>
<path style="fill:#e2ecf2; stroke:none;" d="M129 212L130 213L129 212z"/>
<path style="fill:#c0dcf1; stroke:none;" d="M192 212L193 213L192 212z"/>
<path style="fill:#95c9f0; stroke:none;" d="M193 212L194 213L193 212z"/>
<path style="fill:#e2ecf2; stroke:none;" d="M385 212L386 213L385 212z"/>
<path style="fill:#95c9f0; stroke:none;" d="M386 212L387 213L386 212z"/>
<path style="fill:#c0dcf1; stroke:none;" d="M129 213L130 214L129 213z"/>
<path style="fill:#e2ecf2; stroke:none;" d="M194 213L195 214L194 213z"/>
<path style="fill:#95c9f0; stroke:none;" d="M195 213L196 214L195 213z"/>
<path style="fill:#e2ecf2; stroke:none;" d="M384 213L385 214L384 213z"/>
<path style="fill:#95c9f0; stroke:none;" d="M129 214L130 215L129 214z"/>
<path style="fill:#e2ecf2; stroke:none;" d="M196 214L197 215L196 214z"/>
<path style="fill:#95c9f0; stroke:none;" d="M197 214L198 215L197 214z"/>
<path style="fill:#c0dcf1; stroke:none;" d="M383 214L384 215L383 214z"/>
<path style="fill:#e2ecf2; stroke:none;" d="M198 215L199 216L198 215z"/>
<path style="fill:#c0dcf1; stroke:none;" d="M199 215L200 216L199 215M382 215L383 216L382 215M130 216L131 217L130 216M201 216L202 217L201 216z"/>
<path style="fill:#95c9f0; stroke:none;" d="M202 216L203 217L202 216M382 216L382 228L383 228L382 216M130 217L131 218L130 217z"/>
<path style="fill:#e2ecf2; stroke:none;" d="M203 217L204 218L203 217z"/>
<path style="fill:#95c9f0; stroke:none;" d="M204 217L205 218L204 217z"/>
<path style="fill:#e2ecf2; stroke:none;" d="M205 218L206 219L205 218z"/>
<path style="fill:#95c9f0; stroke:none;" d="M206 218L207 219L206 218z"/>
<path style="fill:#c0dcf1; stroke:none;" d="M131 219L132 220L131 219z"/>
<path style="fill:#e2ecf2; stroke:none;" d="M207 219L208 220L207 219z"/>
<path style="fill:#c0dcf1; stroke:none;" d="M208 219L209 220L208 219z"/>
<path style="fill:#95c9f0; stroke:none;" d="M209 219L210 220L209 219z"/>
<path style="fill:#e2ecf2; stroke:none;" d="M260 219L260 223L261 223L260 219z"/>
<path style="fill:#95c9f0; stroke:none;" d="M131 220L132 221L131 220z"/>
<path style="fill:#e2ecf2; stroke:none;" d="M210 220L211 221L210 220z"/>
<path style="fill:#c0dcf1; stroke:none;" d="M211 220L212 221L211 220z"/>
<path style="fill:#95c9f0; stroke:none;" d="M212 220L213 221L212 220z"/>
<path style="fill:#e2ecf2; stroke:none;" d="M132 221L133 222L132 221M213 221L214 222L213 221z"/>
<path style="fill:#c0dcf1; stroke:none;" d="M214 221L215 222L214 221z"/>
<path style="fill:#95c9f0; stroke:none;" d="M215 221L216 222L215 221M132 222L133 223L132 222z"/>
<path style="fill:#c0dcf1; stroke:none;" d="M217 222L218 223L217 222z"/>
<path style="fill:#95c9f0; stroke:none;" d="M218 222L219 223L218 222z"/>
<path style="fill:#e2ecf2; stroke:none;" d="M133 223L134 224L133 223z"/>
<path style="fill:#c0dcf1; stroke:none;" d="M220 223L221 224L220 223z"/>
<path style="fill:#95c9f0; stroke:none;" d="M221 223L222 224L221 223z"/>
<path style="fill:#c0dcf1; stroke:none;" d="M260.333 223.667L260.667 224.333L260.333 223.667z"/>
<path style="fill:#95c9f0; stroke:none;" d="M133 224L134 225L133 224z"/>
<path style="fill:#c0dcf1; stroke:none;" d="M223 224L224 225L223 224z"/>
<path style="fill:#95c9f0; stroke:none;" d="M224 224L225 225L224 224z"/>
<path style="fill:#e2ecf2; stroke:none;" d="M134 225L135 226L134 225M226 225L227 226L226 225z"/>
<path style="fill:#c0dcf1; stroke:none;" d="M227 225L228 226L227 225z"/>
<path style="fill:#95c9f0; stroke:none;" d="M228.667 225.333L229.333 225.667L228.667 225.333M260.333 225.667L260.667 226.333L260.333 225.667z"/>
<path style="fill:#c0dcf1; stroke:none;" d="M134 226L135 227L134 226z"/>
<path style="fill:#e2ecf2; stroke:none;" d="M230 226L231 227L230 226z"/>
<path style="fill:#c0dcf1; stroke:none;" d="M231 226L232 227L231 226z"/>
<path style="fill:#95c9f0; stroke:none;" d="M232.667 226.333L233.333 226.667L232.667 226.333z"/>
<path style="fill:#e2ecf2; stroke:none;" d="M135 227L136 228L135 227M235 227L236 228L235 227z"/>
<path style="fill:#c0dcf1; stroke:none;" d="M236 227L237 228L236 227z"/>
<path style="fill:#95c9f0; stroke:none;" d="M237.667 227.333L238.333 227.667L237.667 227.333M135 228L136 229L135 228z"/>
<path style="fill:#e2ecf2; stroke:none;" d="M240 228L241 229L240 228z"/>
<path style="fill:#c0dcf1; stroke:none;" d="M241.667 228.333L242.333 228.667L241.667 228.333z"/>
<path style="fill:#95c9f0; stroke:none;" d="M243.667 228.333L244.333 228.667L243.667 228.333z"/>
<path style="fill:#e2ecf2; stroke:none;" d="M261 228L262 229L261 228z"/>
<path style="fill:#c0dcf1; stroke:none;" d="M136 229L137 230L136 229z"/>
<path style="fill:#e2ecf2; stroke:none;" d="M247 229L248 230L247 229z"/>
<path style="fill:#c0dcf1; stroke:none;" d="M248.667 229.333L249.333 229.667L248.667 229.333z"/>
<path style="fill:#95c9f0; stroke:none;" d="M250 229L250 230L253 230L250 229z"/>
<path style="fill:#c0dcf1; stroke:none;" d="M261 229L259 230L259 231L261 229z"/>
<path style="fill:#e2ecf2; stroke:none;" d="M137 230L138 231L137 230M256 230L256 231L259 231L256 230M261 230L262 231L261 230z"/>
<path style="fill:#95c9f0; stroke:none;" d="M137 231L138 232L137 231z"/>
<path style="fill:#c0dcf1; stroke:none;" d="M138 232L139 233L138 232z"/>
<path style="fill:#e2ecf2; stroke:none;" d="M139 233L141 235L139 233M381 233L381 237L382 237L381 233z"/>
<path style="fill:#95c9f0; stroke:none;" d="M139 234L140 235L139 234M140 235L141 236L140 235z"/>
<path style="fill:#c0dcf1; stroke:none;" d="M141 236L142 237L141 236M142 237L143 238L142 237M381 237L381 240L382 240L381 237z"/>
<path style="fill:#e2ecf2; stroke:none;" d="M143 238L144 239L143 238M144 239L145 240L144 239M145 240L146 241L145 240z"/>
<path style="fill:#95c9f0; stroke:none;" d="M381 240L381 243L382 243L381 240M126 241L126 244L127 244L126 241z"/>
<path style="fill:#e2ecf2; stroke:none;" d="M127 241L128 242L127 241z"/>
<path style="fill:#c0dcf1; stroke:none;" d="M128 241L129 242L128 241z"/>
<path style="fill:#e2ecf2; stroke:none;" d="M146 241L147 242L146 241M129 242L130 243L129 242z"/>
<path style="fill:#c0dcf1; stroke:none;" d="M130 242L131 243L130 242z"/>
<path style="fill:#e2ecf2; stroke:none;" d="M147 242L148 243L147 242M131 243L132 244L131 243z"/>
<path style="fill:#c0dcf1; stroke:none;" d="M132 243L133 244L132 243z"/>
<path style="fill:#95c9f0; stroke:none;" d="M133 243L134 244L133 243z"/>
<path style="fill:#c0dcf1; stroke:none;" d="M148 243L149 244L148 243z"/>
<path style="fill:#e2ecf2; stroke:none;" d="M134 244L135 245L134 244z"/>
<path style="fill:#95c9f0; stroke:none;" d="M135 244L136 245L135 244z"/>
<path style="fill:#c0dcf1; stroke:none;" d="M149 244L150 245L149 244z"/>
<path style="fill:#e2ecf2; stroke:none;" d="M380.333 244.667L380.667 245.333L380.333 244.667M137 245L138 246L137 245z"/>
<path style="fill:#95c9f0; stroke:none;" d="M138 245L139 246L138 245M150 245L151 246L150 245z"/>
<path style="fill:#e2ecf2; stroke:none;" d="M151 245L152 246L151 245M140 246L141 247L140 246z"/>
<path style="fill:#c0dcf1; stroke:none;" d="M141 246L142 247L141 246z"/>
<path style="fill:#95c9f0; stroke:none;" d="M142.667 246.333L143.333 246.667L142.667 246.333z"/>
<path style="fill:#e2ecf2; stroke:none;" d="M152 246L153 247L152 246z"/>
<path style="fill:#c0dcf1; stroke:none;" d="M380 246L381 247L380 246z"/>
<path style="fill:#e2ecf2; stroke:none;" d="M127.333 247.667L127.667 248.333L127.333 247.667M144.667 247.333L145.333 247.667L144.667 247.333z"/>
<path style="fill:#c0dcf1; stroke:none;" d="M146 247L147 248L146 247z"/>
<path style="fill:#95c9f0; stroke:none;" d="M147 247L147 248L150 248L147 247z"/>
<path style="fill:#c0dcf1; stroke:none;" d="M153 247L154 248L153 247z"/>
<path style="fill:#95c9f0; stroke:none;" d="M380 247L380 250L381 250L380 247z"/>
<path style="fill:#e2ecf2; stroke:none;" d="M152 248L152 249L155 249L152 248z"/>
<path style="fill:#c0dcf1; stroke:none;" d="M127 249L127 252L128 252L127 249z"/>
<path style="fill:#e2ecf2; stroke:none;" d="M379.333 251.667L379.667 252.333L379.333 251.667z"/>
<path style="fill:#95c9f0; stroke:none;" d="M127 252L128 253L127 252z"/>
<path style="fill:#c0dcf1; stroke:none;" d="M379 253L380 254L379 253z"/>
<path style="fill:#e2ecf2; stroke:none;" d="M128 254L129 255L128 254z"/>
<path style="fill:#95c9f0; stroke:none;" d="M379.333 254.667L379.667 255.333L379.333 254.667z"/>
<path style="fill:#c0dcf1; stroke:none;" d="M128 255L129 256L128 255z"/>
<path style="fill:#95c9f0; stroke:none;" d="M128 256L129 257L128 256z"/>
<path style="fill:#e2ecf2; stroke:none;" d="M378 257L379 258L378 257z"/>
<path style="fill:#c0dcf1; stroke:none;" d="M129 258L130 259L129 258M378 258L379 259L378 258z"/>
<path style="fill:#95c9f0; stroke:none;" d="M129.333 259.667L129.667 260.333L129.333 259.667M378 259L379 260L378 259z"/>
<path style="fill:#e2ecf2; stroke:none;" d="M130 261L131 262L130 261M377 261L378 262L377 261z"/>
<path style="fill:#c0dcf1; stroke:none;" d="M130 262L131 263L130 262M377 262L378 263L377 262z"/>
<path style="fill:#95c9f0; stroke:none;" d="M130 263L131 264L130 263M377.333 263.667L377.667 264.333L377.333 263.667z"/>
<path style="fill:#c0dcf1; stroke:none;" d="M131 264L132 265L131 264z"/>
<path style="fill:#95c9f0; stroke:none;" d="M131 265L132 266L131 265z"/>
<path style="fill:#e2ecf2; stroke:none;" d="M376 265L377 266L376 265M132 266L133 267L132 266z"/>
<path style="fill:#c0dcf1; stroke:none;" d="M376 266L377 267L376 266z"/>
<path style="fill:#95c9f0; stroke:none;" d="M132 267L133 268L132 267M376.333 267.667L376.667 268.333L376.333 267.667z"/>
<path style="fill:#e2ecf2; stroke:none;" d="M133 268L134 269L133 268z"/>
<path style="fill:#95c9f0; stroke:none;" d="M133 269L134 270L133 269z"/>
<path style="fill:#e2ecf2; stroke:none;" d="M134 270L135 271L134 270z"/>
<path style="fill:#c0dcf1; stroke:none;" d="M375 270L376 271L375 270z"/>
<path style="fill:#95c9f0; stroke:none;" d="M134 271L135 272L134 271M375 271L376 272L375 271z"/>
<path style="fill:#e2ecf2; stroke:none;" d="M135 272L136 273L135 272M136 273L137 274L136 273z"/>
<path style="fill:#c0dcf1; stroke:none;" d="M374 273L375 274L374 273z"/>
<path style="fill:#95c9f0; stroke:none;" d="M136 274L137 275L136 274M374 274L375 275L374 274z"/>
<path style="fill:#c0dcf1; stroke:none;" d="M137 275L138 276L137 275z"/>
<path style="fill:#e2ecf2; stroke:none;" d="M138 276L139 277L138 276M373 276L374 277L373 276z"/>
<path style="fill:#95c9f0; stroke:none;" d="M138 277L139 278L138 277M373 277L374 278L373 277z"/>
<path style="fill:#f9fafa; stroke:none;" d="M0 278L0 512L234 512L234 511C146.757 510.942 59.5008 442.643 24.3086 366C15.5755 346.981 9.02703 327.469 4.66127 307C2.73767 297.981 3.49988 286.338 0 278z"/>
<path style="fill:#c0dcf1; stroke:none;" d="M139 278L140 279L139 278z"/>
<path style="fill:#f9fafa; stroke:none;" d="M511 278C510.94 368.826 439.249 454.579 360 490.306C335.036 501.56 305.646 510.982 278 511L278 512L512 512L512 347L512 300L511 278z"/>
<path style="fill:#e2ecf2; stroke:none;" d="M140 279L147 286L140 279M372 279L373 280L372 279z"/>
<path style="fill:#95c9f0; stroke:none;" d="M140 280L141 281L140 280M372 280L373 281L372 280M141 281L142 282L141 281M142 282L143 283L142 282z"/>
<path style="fill:#e2ecf2; stroke:none;" d="M371 282L372 283L371 282z"/>
<path style="fill:#95c9f0; stroke:none;" d="M143 283L144 284L143 283M371 283L372 284L371 283M144 284L145 285L144 284M145 285L146 286L145 285z"/>
<path style="fill:#e2ecf2; stroke:none;" d="M370 285L371 286L370 285z"/>
<path style="fill:#95c9f0; stroke:none;" d="M146 286L147 287L146 286M370 286L371 287L370 286M147 287L148 288L147 287z"/>
<path style="fill:#e2ecf2; stroke:none;" d="M148 287L149 288L148 287M369 287L370 288L369 287M149 288L150 289L149 288z"/>
<path style="fill:#95c9f0; stroke:none;" d="M369 288L370 289L369 288z"/>
<path style="fill:#c0dcf1; stroke:none;" d="M150 289L151 290L150 289z"/>
<path style="fill:#e2ecf2; stroke:none;" d="M368 289L369 290L368 289z"/>
<path style="fill:#95c9f0; stroke:none;" d="M151 290L152 291L151 290z"/>
<path style="fill:#e2ecf2; stroke:none;" d="M152 290L153 291L152 290z"/>
<path style="fill:#c0dcf1; stroke:none;" d="M368 290L369 291L368 290M153 291L154 292L153 291z"/>
<path style="fill:#95c9f0; stroke:none;" d="M368 291L369 292L368 291M154 292L155 293L154 292z"/>
<path style="fill:#e2ecf2; stroke:none;" d="M367 292L368 293L367 292z"/>
<path style="fill:#95c9f0; stroke:none;" d="M155 293L156 294L155 293z"/>
<path style="fill:#e2ecf2; stroke:none;" d="M156 293L157 294L156 293z"/>
<path style="fill:#95c9f0; stroke:none;" d="M367 293L368 294L367 293M157 294L158 295L157 294z"/>
<path style="fill:#e2ecf2; stroke:none;" d="M158 294L159 295L158 294M366 294L367 295L366 294z"/>
<path style="fill:#95c9f0; stroke:none;" d="M159 295L160 296L159 295z"/>
<path style="fill:#e2ecf2; stroke:none;" d="M160 295L161 296L160 295z"/>
<path style="fill:#c0dcf1; stroke:none;" d="M366 295L367 296L366 295z"/>
<path style="fill:#95c9f0; stroke:none;" d="M161 296L162 297L161 296z"/>
<path style="fill:#e2ecf2; stroke:none;" d="M162 296L163 297L162 296z"/>
<path style="fill:#95c9f0; stroke:none;" d="M163 297L164 298L163 297z"/>
<path style="fill:#e2ecf2; stroke:none;" d="M164 297L165 298L164 297z"/>
<path style="fill:#c0dcf1; stroke:none;" d="M365 297L366 298L365 297z"/>
<path style="fill:#95c9f0; stroke:none;" d="M165 298L166 299L165 298z"/>
<path style="fill:#c0dcf1; stroke:none;" d="M166 298L167 299L166 298z"/>
<path style="fill:#e2ecf2; stroke:none;" d="M167 298L168 299L167 298z"/>
<path style="fill:#95c9f0; stroke:none;" d="M365 298L366 299L365 298M169 299L170 300L169 299z"/>
<path style="fill:#c0dcf1; stroke:none;" d="M170 299L171 300L170 299z"/>
<path style="fill:#e2ecf2; stroke:none;" d="M364 299L365 300L364 299z"/>
<path style="fill:#95c9f0; stroke:none;" d="M172 300L175 302L175 301L172 300z"/>
<path style="fill:#c0dcf1; stroke:none;" d="M173 300L174 301L173 300z"/>
<path style="fill:#e2ecf2; stroke:none;" d="M174 300L175 301L174 300z"/>
<path style="fill:#95c9f0; stroke:none;" d="M364 300L365 301L364 300z"/>
<path style="fill:#e2ecf2; stroke:none;" d="M175 301L176 302L175 301M363 301L364 302L363 301z"/>
<path style="fill:#95c9f0; stroke:none;" d="M148 304L151 303L148 304M168.667 302.333L169.333 302.667L168.667 302.333z"/>
<path style="fill:#c0dcf1; stroke:none;" d="M170 302L171 303L170 302z"/>
<path style="fill:#e2ecf2; stroke:none;" d="M171 302L172 303L171 302z"/>
<path style="fill:#95c9f0; stroke:none;" d="M363 302L364 303L363 302z"/>
<path style="fill:#e2ecf2; stroke:none;" d="M152 303L152 304L155 304L152 303z"/>
<path style="fill:#c0dcf1; stroke:none;" d="M155 303L155 304L163 304L155 303z"/>
<path style="fill:#e2ecf2; stroke:none;" d="M163 303L163 304L166 304L163 303z"/>
<path style="fill:#c0dcf1; stroke:none;" d="M362 303L363 304L362 303z"/>
<path style="fill:#95c9f0; stroke:none;" d="M362 304L363 305L362 304z"/>
<path style="fill:#c0dcf1; stroke:none;" d="M149 305L150 306L149 305M361 305L362 306L361 305z"/>
<path style="fill:#95c9f0; stroke:none;" d="M149 306L150 307L149 306z"/>
<path style="fill:#e2ecf2; stroke:none;" d="M360 306L361 307L360 306M150 307L151 308L150 307z"/>
<path style="fill:#c0dcf1; stroke:none;" d="M360 307L361 308L360 307z"/>
<path style="fill:#95c9f0; stroke:none;" d="M150 308L151 309L150 308z"/>
<path style="fill:#e2ecf2; stroke:none;" d="M359 308L360 309L359 308M151 309L152 310L151 309z"/>
<path style="fill:#95c9f0; stroke:none;" d="M359 309L360 310L359 309z"/>
<path style="fill:#c0dcf1; stroke:none;" d="M151 310L152 311L151 310z"/>
<path style="fill:#e2ecf2; stroke:none;" d="M358 310L359 311L358 310M152 311L153 312L152 311z"/>
<path style="fill:#95c9f0; stroke:none;" d="M358 311L359 312L358 311z"/>
<path style="fill:#c0dcf1; stroke:none;" d="M152 312L153 313L152 312z"/>
<path style="fill:#e2ecf2; stroke:none;" d="M357 312L358 313L357 312M153 313L154 314L153 313z"/>
<path style="fill:#95c9f0; stroke:none;" d="M357 313L358 314L357 313M153 314L154 315L153 314z"/>
<path style="fill:#e2ecf2; stroke:none;" d="M356 314L357 315L356 314z"/>
<path style="fill:#c0dcf1; stroke:none;" d="M154 315L155 316L154 315z"/>
<path style="fill:#e2ecf2; stroke:none;" d="M355 315L356 316L355 315M155 316L156 317L155 316z"/>
<path style="fill:#95c9f0; stroke:none;" d="M355 316L356 317L355 316z"/>
<path style="fill:#c0dcf1; stroke:none;" d="M155 317L156 318L155 317z"/>
<path style="fill:#e2ecf2; stroke:none;" d="M354 317L355 318L354 317M156 318L158 320L156 318z"/>
<path style="fill:#95c9f0; stroke:none;" d="M354 318L355 319L354 318M156 319L157 320L156 319z"/>
<path style="fill:#c0dcf1; stroke:none;" d="M353 319L354 320L353 319z"/>
<path style="fill:#95c9f0; stroke:none;" d="M157 320L158 321L157 320z"/>
<path style="fill:#e2ecf2; stroke:none;" d="M352 320L353 321L352 320z"/>
<path style="fill:#c0dcf1; stroke:none;" d="M158 321L159 322L158 321z"/>
<path style="fill:#95c9f0; stroke:none;" d="M352 321L353 322L352 321z"/>
<path style="fill:#c0dcf1; stroke:none;" d="M159 322L160 323L159 322M351 322L352 323L351 322z"/>
<path style="fill:#e2ecf2; stroke:none;" d="M160 323L161 324L160 323M350 323L351 324L350 323M161 324L165 328L161 324z"/>
<path style="fill:#95c9f0; stroke:none;" d="M350 324L351 325L350 324M161 325L162 326L161 325z"/>
<path style="fill:#c0dcf1; stroke:none;" d="M349 325L350 326L349 325z"/>
<path style="fill:#95c9f0; stroke:none;" d="M162 326L163 327L162 326z"/>
<path style="fill:#e2ecf2; stroke:none;" d="M348 326L349 327L348 326z"/>
<path style="fill:#95c9f0; stroke:none;" d="M163 327L164 328L163 327M348 327L349 328L348 327z"/>
<path style="fill:#e2ecf2; stroke:none;" d="M165 328L166 329L165 328z"/>
<path style="fill:#c0dcf1; stroke:none;" d="M347 328L348 329L347 328z"/>
<path style="fill:#e2ecf2; stroke:none;" d="M166 329L167 330L166 329z"/>
<path style="fill:#c0dcf1; stroke:none;" d="M346 329L347 330L346 329M167 330L168 331L167 330z"/>
<path style="fill:#e2ecf2; stroke:none;" d="M345 330L346 331L345 330z"/>
<path style="fill:#c0dcf1; stroke:none;" d="M168 331L169 332L168 331z"/>
<path style="fill:#e2ecf2; stroke:none;" d="M344 331L345 332L344 331z"/>
<path style="fill:#c0dcf1; stroke:none;" d="M169 332L170 333L169 332z"/>
<path style="fill:#95c9f0; stroke:none;" d="M344 332L345 333L344 332M170 333L171 334L170 333z"/>
<path style="fill:#e2ecf2; stroke:none;" d="M171 333L172 334L171 333z"/>
<path style="fill:#c0dcf1; stroke:none;" d="M343 333L344 334L343 333z"/>
<path style="fill:#95c9f0; stroke:none;" d="M172 334L173 335L172 334z"/>
<path style="fill:#e2ecf2; stroke:none;" d="M173 334L174 335L173 334z"/>
<path style="fill:#c0dcf1; stroke:none;" d="M342 334L343 335L342 334M174 335L175 336L174 335z"/>
<path style="fill:#e2ecf2; stroke:none;" d="M341 335L342 336L341 335z"/>
<path style="fill:#95c9f0; stroke:none;" d="M175 336L176 337L175 336z"/>
<path style="fill:#e2ecf2; stroke:none;" d="M176 336L177 337L176 336M340 336L341 337L340 336z"/>
<path style="fill:#c0dcf1; stroke:none;" d="M177 337L178 338L177 337z"/>
<path style="fill:#e2ecf2; stroke:none;" d="M178 337L179 338L178 337z"/>
<path style="fill:#95c9f0; stroke:none;" d="M340 337L341 338L340 337z"/>
<path style="fill:#c0dcf1; stroke:none;" d="M179 338L180 339L179 338z"/>
<path style="fill:#e2ecf2; stroke:none;" d="M180 338L181 339L180 338z"/>
<path style="fill:#c0dcf1; stroke:none;" d="M339 338L340 339L339 338z"/>
<path style="fill:#95c9f0; stroke:none;" d="M181 339L182 340L181 339z"/>
<path style="fill:#e2ecf2; stroke:none;" d="M182 339L183 340L182 339z"/>
<path style="fill:#c0dcf1; stroke:none;" d="M338 339L339 340L338 339z"/>
<path style="fill:#95c9f0; stroke:none;" d="M183 340L184 341L183 340z"/>
<path style="fill:#c0dcf1; stroke:none;" d="M184 340L185 341L184 340z"/>
<path style="fill:#e2ecf2; stroke:none;" d="M337 340L338 341L337 340z"/>
<path style="fill:#95c9f0; stroke:none;" d="M186 341L187 342L186 341z"/>
<path style="fill:#e2ecf2; stroke:none;" d="M187 341L188 342L187 341M336 341L337 342L336 341z"/>
<path style="fill:#95c9f0; stroke:none;" d="M189 342L190 343L189 342z"/>
<path style="fill:#c0dcf1; stroke:none;" d="M190 342L191 343L190 342z"/>
<path style="fill:#e2ecf2; stroke:none;" d="M191 342L192 343L191 342M335 342L336 343L335 342z"/>
<path style="fill:#95c9f0; stroke:none;" d="M193 343L194 344L193 343z"/>
<path style="fill:#c0dcf1; stroke:none;" d="M194 343L195 344L194 343z"/>
<path style="fill:#e2ecf2; stroke:none;" d="M195.667 343.333L196.333 343.667L195.667 343.333M334 343L335 344L334 343z"/>
<path style="fill:#95c9f0; stroke:none;" d="M199 344L199 345L202 345L199 344z"/>
<path style="fill:#c0dcf1; stroke:none;" d="M202 344L202 345L205 346L202 344z"/>
<path style="fill:#e2ecf2; stroke:none;" d="M333 344L326 352L333 344z"/>
<path style="fill:#95c9f0; stroke:none;" d="M333 345L334 346L333 345M202 346L203 347L202 346z"/>
<path style="fill:#e2ecf2; stroke:none;" d="M203 346L204 347L203 346z"/>
<path style="fill:#95c9f0; stroke:none;" d="M332 346L333 347L332 346M201 347L202 348L201 347M331 347L332 348L331 347z"/>
<path style="fill:#c0dcf1; stroke:none;" d="M200 348L201 349L200 348z"/>
<path style="fill:#95c9f0; stroke:none;" d="M330 348L331 349L330 348M198 349L199 350L198 349z"/>
<path style="fill:#e2ecf2; stroke:none;" d="M199 349L200 350L199 349z"/>
<path style="fill:#95c9f0; stroke:none;" d="M329 349L330 350L329 349z"/>
<path style="fill:#c0dcf1; stroke:none;" d="M197 350L198 351L197 350z"/>
<path style="fill:#95c9f0; stroke:none;" d="M328 350L329 351L328 350M195 351L196 352L195 351z"/>
<path style="fill:#e2ecf2; stroke:none;" d="M196 351L197 352L196 351z"/>
<path style="fill:#95c9f0; stroke:none;" d="M327 351L328 352L327 351z"/>
<path style="fill:#c0dcf1; stroke:none;" d="M194 352L195 353L194 352z"/>
<path style="fill:#95c9f0; stroke:none;" d="M326 352L327 353L326 352z"/>
<path style="fill:#c0dcf1; stroke:none;" d="M192 353L193 354L192 353z"/>
<path style="fill:#e2ecf2; stroke:none;" d="M324 353L325 354L324 353z"/>
<path style="fill:#95c9f0; stroke:none;" d="M325 353L326 354L325 353M190 354L191 355L190 354z"/>
<path style="fill:#e2ecf2; stroke:none;" d="M191 354L192 355L191 354M323 354L324 355L323 354z"/>
<path style="fill:#c0dcf1; stroke:none;" d="M189 355L190 356L189 355z"/>
<path style="fill:#e2ecf2; stroke:none;" d="M322 355L323 356L322 355z"/>
<path style="fill:#c0dcf1; stroke:none;" d="M187 356L188 357L187 356M321 356L322 357L321 356M185 357L186 358L185 357z"/>
<path style="fill:#95c9f0; stroke:none;" d="M320 357L321 358L320 357z"/>
<path style="fill:#c0dcf1; stroke:none;" d="M183 358L184 359L183 358z"/>
<path style="fill:#e2ecf2; stroke:none;" d="M318 358L317 360L318 358z"/>
<path style="fill:#95c9f0; stroke:none;" d="M319 358L320 359L319 358z"/>
<path style="fill:#c0dcf1; stroke:none;" d="M181 359L182 360L181 359z"/>
<path style="fill:#95c9f0; stroke:none;" d="M318 359L319 360L318 359M178 360L179 361L178 360z"/>
<path style="fill:#c0dcf1; stroke:none;" d="M179 360L180 361L179 360z"/>
<path style="fill:#e2ecf2; stroke:none;" d="M316 360L317 361L316 360z"/>
<path style="fill:#95c9f0; stroke:none;" d="M176 361L177 362L176 361z"/>
<path style="fill:#e2ecf2; stroke:none;" d="M177 361L178 362L177 361z"/>
<path style="fill:#c0dcf1; stroke:none;" d="M315 361L316 362L315 361z"/>
<path style="fill:#95c9f0; stroke:none;" d="M173 362L174 363L173 362z"/>
<path style="fill:#c0dcf1; stroke:none;" d="M174 362L175 363L174 362z"/>
<path style="fill:#e2ecf2; stroke:none;" d="M175 362L176 363L175 362z"/>
<path style="fill:#c0dcf1; stroke:none;" d="M314 362L315 363L314 362z"/>
<path style="fill:#95c9f0; stroke:none;" d="M171 363L172 364L171 363z"/>
<path style="fill:#e2ecf2; stroke:none;" d="M172 363L173 364L172 363M312 363L313 364L312 363z"/>
<path style="fill:#95c9f0; stroke:none;" d="M313 363L314 364L313 363M168 364L169 365L168 364z"/>
<path style="fill:#c0dcf1; stroke:none;" d="M169 364L170 365L169 364z"/>
<path style="fill:#e2ecf2; stroke:none;" d="M170 364L171 365L170 364M311 364L312 365L311 364z"/>
<path style="fill:#95c9f0; stroke:none;" d="M164.667 365.333L165.333 365.667L164.667 365.333z"/>
<path style="fill:#e2ecf2; stroke:none;" d="M166 365L167 366L166 365M309 365L308 367L309 365z"/>
<path style="fill:#95c9f0; stroke:none;" d="M310 365L311 366L310 365M161 366L162 367L161 366z"/>
<path style="fill:#c0dcf1; stroke:none;" d="M162 366L163 367L162 366z"/>
<path style="fill:#e2ecf2; stroke:none;" d="M163 366L164 367L163 366z"/>
<path style="fill:#95c9f0; stroke:none;" d="M309 366L310 367L309 366M157 367L158 368L157 367z"/>
<path style="fill:#c0dcf1; stroke:none;" d="M158.667 367.333L159.333 367.667L158.667 367.333z"/>
<path style="fill:#e2ecf2; stroke:none;" d="M160 367L161 368L160 367z"/>
<path style="fill:#c0dcf1; stroke:none;" d="M307 367L308 368L307 367z"/>
<path style="fill:#95c9f0; stroke:none;" d="M152.667 368.333L153.333 368.667L152.667 368.333z"/>
<path style="fill:#c0dcf1; stroke:none;" d="M154 368L155 369L154 368z"/>
<path style="fill:#e2ecf2; stroke:none;" d="M155 368L156 369L155 368M305 368L306 369L305 368z"/>
<path style="fill:#95c9f0; stroke:none;" d="M306 368L307 369L306 368M146 369L146 370L149 370L146 369z"/>
<path style="fill:#c0dcf1; stroke:none;" d="M149 369L150 370L149 369z"/>
<path style="fill:#e2ecf2; stroke:none;" d="M150.667 369.333L151.333 369.667L150.667 369.333z"/>
<path style="fill:#c0dcf1; stroke:none;" d="M304 369L305 370L304 369z"/>
<path style="fill:#95c9f0; stroke:none;" d="M115 370L117 372L115 370z"/>
<path style="fill:#c0dcf1; stroke:none;" d="M116 370L116 371L119 371L116 370z"/>
<path style="fill:#95c9f0; stroke:none;" d="M119 370L119 371L125 371L119 370M135 370L135 371L141 371L135 370z"/>
<path style="fill:#c0dcf1; stroke:none;" d="M141.667 370.333L142.333 370.667L141.667 370.333z"/>
<path style="fill:#e2ecf2; stroke:none;" d="M143 370L144 371L143 370M302 370L303 371L302 370z"/>
<path style="fill:#95c9f0; stroke:none;" d="M303 370L304 371L303 370z"/>
<path style="fill:#e2ecf2; stroke:none;" d="M117 371L118 372L117 371M129 371L130 372L129 371z"/>
<path style="fill:#c0dcf1; stroke:none;" d="M301 371L302 372L301 371z"/>
<path style="fill:#95c9f0; stroke:none;" d="M118 372L119 373L118 372z"/>
<path style="fill:#e2ecf2; stroke:none;" d="M119 372L120 373L119 372M299 372L300 373L299 372z"/>
<path style="fill:#95c9f0; stroke:none;" d="M300 372L301 373L300 372z"/>
<path style="fill:#c0dcf1; stroke:none;" d="M120 373L121 374L120 373z"/>
<path style="fill:#e2ecf2; stroke:none;" d="M297 373L298 374L297 373z"/>
<path style="fill:#c0dcf1; stroke:none;" d="M298 373L299 374L298 373z"/>
<path style="fill:#95c9f0; stroke:none;" d="M121 374L122 375L121 374z"/>
<path style="fill:#e2ecf2; stroke:none;" d="M122 374L123 375L122 374z"/>
<path style="fill:#c0dcf1; stroke:none;" d="M296 374L297 375L296 374z"/>
<path style="fill:#95c9f0; stroke:none;" d="M123 375L124 376L123 375z"/>
<path style="fill:#e2ecf2; stroke:none;" d="M124 375L125 376L124 375z"/>
<path style="fill:#c0dcf1; stroke:none;" d="M294 375L295 376L294 375z"/>
<path style="fill:#95c9f0; stroke:none;" d="M295 375L296 376L295 375z"/>
<path style="fill:#c0dcf1; stroke:none;" d="M125 376L126 377L125 376z"/>
<path style="fill:#e2ecf2; stroke:none;" d="M126 376L127 377L126 376M292 376L293 377L292 376z"/>
<path style="fill:#95c9f0; stroke:none;" d="M293 376L294 377L293 376z"/>
<path style="fill:#c0dcf1; stroke:none;" d="M127 377L128 378L127 377z"/>
<path style="fill:#e2ecf2; stroke:none;" d="M128 377L129 378L128 377M290 377L291 378L290 377z"/>
<path style="fill:#95c9f0; stroke:none;" d="M291 377L292 378L291 377z"/>
<path style="fill:#c0dcf1; stroke:none;" d="M129 378L130 379L129 378z"/>
<path style="fill:#e2ecf2; stroke:none;" d="M288 378L289 379L288 378z"/>
<path style="fill:#95c9f0; stroke:none;" d="M289 378L290 379L289 378z"/>
<path style="fill:#c0dcf1; stroke:none;" d="M131 379L132 380L131 379z"/>
<path style="fill:#e2ecf2; stroke:none;" d="M286 379L287 380L286 379z"/>
<path style="fill:#95c9f0; stroke:none;" d="M287 379L288 380L287 379z"/>
<path style="fill:#c0dcf1; stroke:none;" d="M133 380L134 381L133 380z"/>
<path style="fill:#e2ecf2; stroke:none;" d="M284 380L285 381L284 380z"/>
<path style="fill:#95c9f0; stroke:none;" d="M285 380L286 381L285 380z"/>
<path style="fill:#c0dcf1; stroke:none;" d="M135 381L136 382L135 381z"/>
<path style="fill:#e2ecf2; stroke:none;" d="M282 381L283 382L282 381z"/>
<path style="fill:#c0dcf1; stroke:none;" d="M283 381L284 382L283 381z"/>
<path style="fill:#95c9f0; stroke:none;" d="M137 382L138 383L137 382z"/>
<path style="fill:#e2ecf2; stroke:none;" d="M138 382L139 383L138 382M280 382L281 383L280 382z"/>
<path style="fill:#95c9f0; stroke:none;" d="M281 382L282 383L281 382M139 383L140 384L139 383z"/>
<path style="fill:#c0dcf1; stroke:none;" d="M140 383L141 384L140 383M278 383L279 384L278 383z"/>
<path style="fill:#95c9f0; stroke:none;" d="M279 383L280 384L279 383z"/>
<path style="fill:#c0dcf1; stroke:none;" d="M142 384L143 385L142 384z"/>
<path style="fill:#e2ecf2; stroke:none;" d="M143 384L144 385L143 384M275 384L276 385L275 384z"/>
<path style="fill:#c0dcf1; stroke:none;" d="M276 384L277 385L276 384z"/>
<path style="fill:#95c9f0; stroke:none;" d="M277 384L278 385L277 384M144 385L145 386L144 385z"/>
<path style="fill:#e2ecf2; stroke:none;" d="M145 385L146 386L145 385M273 385L274 386L273 385z"/>
<path style="fill:#95c9f0; stroke:none;" d="M274 385L275 386L274 385M146 386L147 387L146 386z"/>
<path style="fill:#c0dcf1; stroke:none;" d="M147 386L148 387L147 386z"/>
<path style="fill:#e2ecf2; stroke:none;" d="M148 386L149 387L148 386M270 386L271 387L270 386z"/>
<path style="fill:#c0dcf1; stroke:none;" d="M271 386L272 387L271 386z"/>
<path style="fill:#95c9f0; stroke:none;" d="M272 386L273 387L272 386M149 387L150 388L149 387z"/>
<path style="fill:#c0dcf1; stroke:none;" d="M150 387L151 388L150 387z"/>
<path style="fill:#e2ecf2; stroke:none;" d="M151 387L152 388L151 387M267 387L268 388L267 387z"/>
<path style="fill:#c0dcf1; stroke:none;" d="M268 387L269 388L268 387z"/>
<path style="fill:#95c9f0; stroke:none;" d="M269 387L270 388L269 387M152 388L153 389L152 388z"/>
<path style="fill:#c0dcf1; stroke:none;" d="M153 388L154 389L153 388z"/>
<path style="fill:#e2ecf2; stroke:none;" d="M154 388L155 389L154 388M264 388L265 389L264 388z"/>
<path style="fill:#c0dcf1; stroke:none;" d="M265 388L266 389L265 388z"/>
<path style="fill:#95c9f0; stroke:none;" d="M266 388L267 389L266 388M155 389L156 390L155 389z"/>
<path style="fill:#c0dcf1; stroke:none;" d="M156 389L157 390L156 389z"/>
<path style="fill:#e2ecf2; stroke:none;" d="M157 389L158 390L157 389M261 389L262 390L261 389z"/>
<path style="fill:#c0dcf1; stroke:none;" d="M262 389L263 390L262 389z"/>
<path style="fill:#95c9f0; stroke:none;" d="M263 389L264 390L263 389M158 390L159 391L158 390z"/>
<path style="fill:#c0dcf1; stroke:none;" d="M159 390L160 391L159 390z"/>
<path style="fill:#e2ecf2; stroke:none;" d="M160 390L161 391L160 390M258 390L259 391L258 390z"/>
<path style="fill:#c0dcf1; stroke:none;" d="M259 390L260 391L259 390z"/>
<path style="fill:#95c9f0; stroke:none;" d="M260 390L261 391L260 390M162 391L163 392L162 391z"/>
<path style="fill:#c0dcf1; stroke:none;" d="M163 391L164 392L163 391z"/>
<path style="fill:#e2ecf2; stroke:none;" d="M164 391L165 392L164 391M254 391L255 392L254 391z"/>
<path style="fill:#c0dcf1; stroke:none;" d="M255 391L256 392L255 391z"/>
<path style="fill:#95c9f0; stroke:none;" d="M256 391L257 392L256 391M165.667 392.333L166.333 392.667L165.667 392.333z"/>
<path style="fill:#c0dcf1; stroke:none;" d="M167 392L168 393L167 392z"/>
<path style="fill:#e2ecf2; stroke:none;" d="M168 392L169 393L168 392M250 392L251 393L250 392z"/>
<path style="fill:#c0dcf1; stroke:none;" d="M251 392L252 393L251 392z"/>
<path style="fill:#95c9f0; stroke:none;" d="M252 392L253 393L252 392M169.667 393.333L170.333 393.667L169.667 393.333z"/>
<path style="fill:#c0dcf1; stroke:none;" d="M171 393L172 394L171 393z"/>
<path style="fill:#e2ecf2; stroke:none;" d="M172 393L173 394L172 393M245.667 393.333L246.333 393.667L245.667 393.333z"/>
<path style="fill:#c0dcf1; stroke:none;" d="M247 393L248 394L247 393z"/>
<path style="fill:#95c9f0; stroke:none;" d="M248 393L249 394L248 393M174.667 394.333L175.333 394.667L174.667 394.333z"/>
<path style="fill:#c0dcf1; stroke:none;" d="M176 394L177 395L176 394z"/>
<path style="fill:#e2ecf2; stroke:none;" d="M177.667 394.333L178.333 394.667L177.667 394.333M240 394L241 395L240 394z"/>
<path style="fill:#c0dcf1; stroke:none;" d="M241.667 394.333L242.333 394.667L241.667 394.333z"/>
<path style="fill:#95c9f0; stroke:none;" d="M243 394L244 395L243 394M180 395L181 396L180 395z"/>
<path style="fill:#c0dcf1; stroke:none;" d="M181.667 395.333L182.333 395.667L181.667 395.333z"/>
<path style="fill:#e2ecf2; stroke:none;" d="M183.667 395.333L184.333 395.667L183.667 395.333M233.667 395.333L234.333 395.667L233.667 395.333z"/>
<path style="fill:#c0dcf1; stroke:none;" d="M235.667 395.333L236.333 395.667L235.667 395.333z"/>
<path style="fill:#95c9f0; stroke:none;" d="M237.667 395.333L238.333 395.667L237.667 395.333M187 396L187 397L190 397L187 396z"/>
<path style="fill:#c0dcf1; stroke:none;" d="M190.667 396.333L191.333 396.667L190.667 396.333z"/>
<path style="fill:#e2ecf2; stroke:none;" d="M192.667 396.333L193.333 396.667L192.667 396.333M224.667 396.333L225.333 396.667L224.667 396.333z"/>
<path style="fill:#c0dcf1; stroke:none;" d="M226 396L226 397L229 397L226 396z"/>
<path style="fill:#95c9f0; stroke:none;" d="M229 396L229 397L232 397L229 396M196 397L196 398L205 398L196 397z"/>
<path style="fill:#c0dcf1; stroke:none;" d="M205 397L205 398L213 398L205 397z"/>
<path style="fill:#95c9f0; stroke:none;" d="M213 397L213 398L221 398L213 397z"/>
</svg>
